G04 Layer_Physical_Order=1*
G04 Layer_Color=25308*
%FSLAX25Y25*%
%MOIN*%
G70*
G01*
G75*
%ADD10C,0.01969*%
G04:AMPARAMS|DCode=11|XSize=55.12mil|YSize=55.12mil|CornerRadius=16.54mil|HoleSize=0mil|Usage=FLASHONLY|Rotation=0.000|XOffset=0mil|YOffset=0mil|HoleType=Round|Shape=RoundedRectangle|*
%AMROUNDEDRECTD11*
21,1,0.05512,0.02205,0,0,0.0*
21,1,0.02205,0.05512,0,0,0.0*
1,1,0.03307,0.01102,-0.01102*
1,1,0.03307,-0.01102,-0.01102*
1,1,0.03307,-0.01102,0.01102*
1,1,0.03307,0.01102,0.01102*
%
%ADD11ROUNDEDRECTD11*%
%ADD12C,0.05512*%
%ADD13C,0.07000*%
%ADD14R,0.07000X0.07000*%
%ADD15C,0.06000*%
%ADD16O,0.10000X0.05000*%
%ADD17R,0.10000X0.05000*%
%ADD18R,0.07874X0.07874*%
%ADD19C,0.07874*%
D10*
X260000Y280000D02*
X265000D01*
X270000Y275000D01*
Y270000D02*
Y275000D01*
X255000Y255000D02*
X270000Y270000D01*
X185000Y255000D02*
X255000D01*
X175000Y265000D02*
X185000Y255000D01*
X160000Y265000D02*
X175000D01*
X155000Y270000D02*
X160000Y265000D01*
X145031Y270000D02*
X155000D01*
X140016Y275016D02*
X145031Y270000D01*
X140016Y275016D02*
Y284984D01*
X135000Y290000D02*
X140016Y284984D01*
X200000Y320000D02*
X205000D01*
X210000Y315000D01*
Y310000D02*
Y315000D01*
X205000Y305000D02*
X210000Y310000D01*
X152500Y305000D02*
X205000D01*
X150000Y302500D02*
X152500Y305000D01*
X150000Y285000D02*
Y302500D01*
X145000Y280000D02*
X150000Y285000D01*
X265000Y380000D02*
X270000D01*
X260000D02*
X265000D01*
X310000Y385000D02*
X315000Y390000D01*
X275000Y385000D02*
X310000D01*
X270000Y380000D02*
X275000Y385000D01*
X297500Y397500D02*
X315374D01*
X322874Y390000D01*
X255000Y400000D02*
X260000D01*
X250000Y395000D02*
X255000Y400000D01*
X250000Y371158D02*
Y395000D01*
Y371158D02*
X255643Y365516D01*
X263326D01*
X266984Y361857D01*
Y357336D02*
Y361857D01*
Y357336D02*
X279320Y345000D01*
X280000D01*
X277500Y397500D02*
X287500D01*
X265000Y410000D02*
X277500Y397500D01*
X260000Y410000D02*
X265000D01*
X290000Y390000D02*
X297500Y397500D01*
X275000Y390000D02*
X290000D01*
X265000Y400000D02*
X275000Y390000D01*
X260000Y400000D02*
X265000D01*
X280000Y345000D02*
X280680D01*
X265000Y380000D02*
X270000Y375000D01*
Y365000D02*
Y375000D01*
Y365000D02*
X280000Y355000D01*
X260000Y340000D02*
X275000Y325000D01*
X280000D01*
X260000Y350000D02*
X275000Y335000D01*
X280000D01*
X250000Y260000D02*
X260000Y270000D01*
X190000Y260000D02*
X250000D01*
X180000Y270000D02*
X190000Y260000D01*
X165000Y270000D02*
X180000D01*
X155000Y280000D02*
X165000Y270000D01*
X190000D02*
X200000D01*
X180000Y280000D02*
X190000Y270000D01*
X165000Y280000D02*
X180000D01*
X190000D02*
X200000D01*
X170000Y300000D02*
X190000Y280000D01*
X160000Y300000D02*
X170000D01*
X155000Y295000D02*
X160000Y300000D01*
X155000Y290000D02*
Y295000D01*
X150000Y310000D02*
X200000D01*
X145000Y305000D02*
X150000Y310000D01*
X145000Y290000D02*
Y305000D01*
X167874Y400000D02*
X172874Y395000D01*
X145000Y400000D02*
X167874D01*
X130000Y385000D02*
X145000Y400000D01*
X130000Y285000D02*
Y385000D01*
Y285000D02*
X135000Y280000D01*
X150000Y395000D02*
X165000D01*
X135000Y380000D02*
X150000Y395000D01*
X135000Y290000D02*
Y380000D01*
X172874Y387126D02*
Y395000D01*
Y387126D02*
X180000Y380000D01*
X200000D01*
D11*
X322874Y390000D02*
D03*
X172874Y395000D02*
D03*
D12*
X315000Y390000D02*
D03*
X165000Y395000D02*
D03*
D13*
X297500Y397500D02*
D03*
D14*
X287500D02*
D03*
D15*
X135000Y290000D02*
D03*
Y280000D02*
D03*
X145000Y290000D02*
D03*
Y280000D02*
D03*
X155000Y290000D02*
D03*
Y280000D02*
D03*
X165000Y290000D02*
D03*
Y280000D02*
D03*
D16*
X260000Y270000D02*
D03*
Y280000D02*
D03*
Y290000D02*
D03*
Y300000D02*
D03*
Y310000D02*
D03*
Y320000D02*
D03*
Y330000D02*
D03*
Y340000D02*
D03*
Y350000D02*
D03*
Y360000D02*
D03*
Y370000D02*
D03*
Y380000D02*
D03*
Y390000D02*
D03*
Y400000D02*
D03*
Y410000D02*
D03*
X200000Y270000D02*
D03*
Y280000D02*
D03*
Y290000D02*
D03*
Y300000D02*
D03*
Y310000D02*
D03*
Y320000D02*
D03*
Y330000D02*
D03*
Y340000D02*
D03*
Y350000D02*
D03*
Y360000D02*
D03*
Y370000D02*
D03*
Y380000D02*
D03*
Y390000D02*
D03*
Y400000D02*
D03*
D17*
Y410000D02*
D03*
D18*
X280000Y355000D02*
D03*
D19*
Y345000D02*
D03*
Y335000D02*
D03*
Y325000D02*
D03*
Y315000D02*
D03*
Y305000D02*
D03*
Y295000D02*
D03*
Y285000D02*
D03*
M02*
