G04 Layer_Physical_Order=2*
G04 Layer_Color=11436288*
%FSLAX25Y25*%
%MOIN*%
G70*
G01*
G75*
G04:AMPARAMS|DCode=11|XSize=55.12mil|YSize=55.12mil|CornerRadius=16.54mil|HoleSize=0mil|Usage=FLASHONLY|Rotation=0.000|XOffset=0mil|YOffset=0mil|HoleType=Round|Shape=RoundedRectangle|*
%AMROUNDEDRECTD11*
21,1,0.05512,0.02205,0,0,0.0*
21,1,0.02205,0.05512,0,0,0.0*
1,1,0.03307,0.01102,-0.01102*
1,1,0.03307,-0.01102,-0.01102*
1,1,0.03307,-0.01102,0.01102*
1,1,0.03307,0.01102,0.01102*
%
%ADD11ROUNDEDRECTD11*%
%ADD12C,0.05512*%
%ADD13C,0.07000*%
%ADD14R,0.07000X0.07000*%
%ADD15C,0.06000*%
%ADD16O,0.10000X0.05000*%
%ADD17R,0.10000X0.05000*%
%ADD18R,0.07874X0.07874*%
%ADD19C,0.07874*%
D11*
X322874Y390000D02*
D03*
X172874Y395000D02*
D03*
D12*
X315000Y390000D02*
D03*
X165000Y395000D02*
D03*
D13*
X297500Y397500D02*
D03*
D14*
X287500D02*
D03*
D15*
X135000Y290000D02*
D03*
Y280000D02*
D03*
X145000Y290000D02*
D03*
Y280000D02*
D03*
X155000Y290000D02*
D03*
Y280000D02*
D03*
X165000Y290000D02*
D03*
Y280000D02*
D03*
D16*
X260000Y270000D02*
D03*
Y280000D02*
D03*
Y290000D02*
D03*
Y300000D02*
D03*
Y310000D02*
D03*
Y320000D02*
D03*
Y330000D02*
D03*
Y340000D02*
D03*
Y350000D02*
D03*
Y360000D02*
D03*
Y370000D02*
D03*
Y380000D02*
D03*
Y390000D02*
D03*
Y400000D02*
D03*
Y410000D02*
D03*
X200000Y270000D02*
D03*
Y280000D02*
D03*
Y290000D02*
D03*
Y300000D02*
D03*
Y310000D02*
D03*
Y320000D02*
D03*
Y330000D02*
D03*
Y340000D02*
D03*
Y350000D02*
D03*
Y360000D02*
D03*
Y370000D02*
D03*
Y380000D02*
D03*
Y390000D02*
D03*
Y400000D02*
D03*
D17*
Y410000D02*
D03*
D18*
X280000Y355000D02*
D03*
D19*
Y345000D02*
D03*
Y335000D02*
D03*
Y325000D02*
D03*
Y315000D02*
D03*
Y305000D02*
D03*
Y295000D02*
D03*
Y285000D02*
D03*
M02*
