M48
;Layer_Color=6321
;FILE_FORMAT=2:5
INCH,LZ
;TYPE=PLATED
T1F00S00C0.03150
T2F00S00C0.03937
T3F00S00C0.04400
%
T01
X0165Y0395
X0172874
X0315Y039
X0322874
T02
X028Y0285
Y0295
Y0305
Y0315
Y0325
Y0335
Y0345
Y0355
X02875Y03975
X02975
T03
X0165Y028
Y029
X02
Y028
Y027
Y03
Y031
X026
Y03
Y029
Y028
Y027
X0155Y028
X0145
X0135
Y029
X0145
X0155
X02Y032
Y033
Y034
Y035
Y036
Y037
Y038
Y039
Y04
Y041
X026
Y04
Y039
Y038
Y037
Y036
Y035
Y034
Y033
Y032
M30
