G04 Layer_Color=8150272*
%FSLAX25Y25*%
%MOIN*%
G70*
G01*
G75*
G04:AMPARAMS|DCode=22|XSize=63.12mil|YSize=63.12mil|CornerRadius=20.54mil|HoleSize=0mil|Usage=FLASHONLY|Rotation=0.000|XOffset=0mil|YOffset=0mil|HoleType=Round|Shape=RoundedRectangle|*
%AMROUNDEDRECTD22*
21,1,0.06312,0.02205,0,0,0.0*
21,1,0.02205,0.06312,0,0,0.0*
1,1,0.04107,0.01102,-0.01102*
1,1,0.04107,-0.01102,-0.01102*
1,1,0.04107,-0.01102,0.01102*
1,1,0.04107,0.01102,0.01102*
%
%ADD22ROUNDEDRECTD22*%
%ADD23C,0.06312*%
%ADD24C,0.07800*%
%ADD25R,0.07800X0.07800*%
%ADD26C,0.06800*%
%ADD27O,0.10800X0.05800*%
%ADD28R,0.10800X0.05800*%
%ADD29R,0.08674X0.08674*%
%ADD30C,0.08674*%
D22*
X322874Y390000D02*
D03*
X172874Y395000D02*
D03*
D23*
X315000Y390000D02*
D03*
X165000Y395000D02*
D03*
D24*
X297500Y397500D02*
D03*
D25*
X287500D02*
D03*
D26*
X135000Y290000D02*
D03*
Y280000D02*
D03*
X145000Y290000D02*
D03*
Y280000D02*
D03*
X155000Y290000D02*
D03*
Y280000D02*
D03*
X165000Y290000D02*
D03*
Y280000D02*
D03*
D27*
X260000Y270000D02*
D03*
Y280000D02*
D03*
Y290000D02*
D03*
Y300000D02*
D03*
Y310000D02*
D03*
Y320000D02*
D03*
Y330000D02*
D03*
Y340000D02*
D03*
Y350000D02*
D03*
Y360000D02*
D03*
Y370000D02*
D03*
Y380000D02*
D03*
Y390000D02*
D03*
Y400000D02*
D03*
Y410000D02*
D03*
X200000Y270000D02*
D03*
Y280000D02*
D03*
Y290000D02*
D03*
Y300000D02*
D03*
Y310000D02*
D03*
Y320000D02*
D03*
Y330000D02*
D03*
Y340000D02*
D03*
Y350000D02*
D03*
Y360000D02*
D03*
Y370000D02*
D03*
Y380000D02*
D03*
Y390000D02*
D03*
Y400000D02*
D03*
D28*
Y410000D02*
D03*
D29*
X280000Y355000D02*
D03*
D30*
Y345000D02*
D03*
Y335000D02*
D03*
Y325000D02*
D03*
Y315000D02*
D03*
Y305000D02*
D03*
Y295000D02*
D03*
Y285000D02*
D03*
M02*
