M48
;Layer_Color=6321
;FILE_FORMAT=2:5
INCH,LZ
;TYPE=PLATED
T1F00S00C0.02500
T2F00S00C0.02800
T3F00S00C0.03000
T4F00S00C0.03150
T5F00S00C0.03543
T6F00S00C0.03600
T7F00S00C0.03937
T8F00S00C0.04134
%
T01
X025Y026
Y027
Y028
Y029
Y03
Y031
X031
Y03
Y029
Y028
Y027
Y026
Y032
Y033
Y034
Y035
Y036
Y037
Y038
Y039
Y04
X025
Y039
Y038
Y037
Y036
Y035
Y034
Y033
Y032
T02
X0205Y0385
X03475Y039
T03
X0335Y027
Y028
X0345
Y027
X0355
Y028
X0365
Y027
T04
X0335Y04025
Y0410374
T05
X0195Y029
Y03
Y031
X0225
Y03
Y029
Y032
Y033
Y034
Y035
Y036
X0195
Y035
Y034
Y033
Y032
T06
X03225Y038
X03525
T07
X0365Y038
X0375
T08
X019Y04
X02
X0225
X0235
X03575Y0405
X03675
M30
