G04 Layer_Color=20142*
%FSLAX25Y25*%
%MOIN*%
G70*
G01*
G75*
%ADD28C,0.07099*%
%ADD29C,0.06800*%
%ADD30C,0.06200*%
%ADD31O,0.10800X0.05800*%
%ADD32R,0.10800X0.05800*%
%ADD33C,0.07887*%
%ADD34R,0.07887X0.07887*%
%ADD35C,0.06312*%
G04:AMPARAMS|DCode=36|XSize=63.12mil|YSize=63.12mil|CornerRadius=20.54mil|HoleSize=0mil|Usage=FLASHONLY|Rotation=90.000|XOffset=0mil|YOffset=0mil|HoleType=Round|Shape=RoundedRectangle|*
%AMROUNDEDRECTD36*
21,1,0.06312,0.02205,0,0,90.0*
21,1,0.02205,0.06312,0,0,90.0*
1,1,0.04107,0.01102,0.01102*
1,1,0.04107,0.01102,-0.01102*
1,1,0.04107,-0.01102,-0.01102*
1,1,0.04107,-0.01102,0.01102*
%
%ADD36ROUNDEDRECTD36*%
%ADD37R,0.06706X0.06706*%
%ADD38C,0.06706*%
%ADD39C,0.05800*%
D28*
X375000Y380000D02*
D03*
X365000D02*
D03*
D29*
X335000Y280000D02*
D03*
Y270000D02*
D03*
X345000Y280000D02*
D03*
Y270000D02*
D03*
X355000Y280000D02*
D03*
Y270000D02*
D03*
X365000Y280000D02*
D03*
Y270000D02*
D03*
D30*
X352500Y380000D02*
D03*
X322500D02*
D03*
D31*
X310000Y260000D02*
D03*
Y270000D02*
D03*
Y280000D02*
D03*
Y290000D02*
D03*
Y300000D02*
D03*
Y310000D02*
D03*
Y320000D02*
D03*
Y330000D02*
D03*
Y340000D02*
D03*
Y350000D02*
D03*
Y360000D02*
D03*
Y370000D02*
D03*
Y380000D02*
D03*
Y390000D02*
D03*
Y400000D02*
D03*
X250000Y260000D02*
D03*
Y270000D02*
D03*
Y280000D02*
D03*
Y290000D02*
D03*
Y300000D02*
D03*
Y310000D02*
D03*
Y320000D02*
D03*
Y330000D02*
D03*
Y340000D02*
D03*
Y350000D02*
D03*
Y360000D02*
D03*
Y370000D02*
D03*
Y380000D02*
D03*
Y390000D02*
D03*
D32*
Y400000D02*
D03*
D33*
X200000D02*
D03*
X235000D02*
D03*
X367500Y405000D02*
D03*
D34*
X190000Y400000D02*
D03*
X225000D02*
D03*
X357500Y405000D02*
D03*
D35*
X335000Y402500D02*
D03*
D36*
Y410374D02*
D03*
D37*
X195000Y360000D02*
D03*
D38*
Y350000D02*
D03*
Y340000D02*
D03*
Y330000D02*
D03*
Y320000D02*
D03*
Y310000D02*
D03*
Y300000D02*
D03*
Y290000D02*
D03*
X225000Y360000D02*
D03*
Y350000D02*
D03*
Y340000D02*
D03*
Y330000D02*
D03*
Y320000D02*
D03*
Y310000D02*
D03*
Y300000D02*
D03*
Y290000D02*
D03*
D39*
X347500Y390000D02*
D03*
X205000Y385000D02*
D03*
M02*
