G04 Layer_Color=15132400*
%FSLAX25Y25*%
%MOIN*%
G70*
G01*
G75*
%ADD20C,0.02362*%
%ADD21C,0.00984*%
%ADD22C,0.00787*%
%ADD23C,0.01000*%
D20*
X204685Y359842D02*
G03*
X204685Y359842I-1181J0D01*
G01*
D21*
X195492Y365118D02*
G03*
X195492Y365118I-492J0D01*
G01*
D22*
X207500Y363779D02*
G03*
X212500Y363779I2500J0D01*
G01*
X344843Y388937D02*
G03*
X344843Y388937I-9843J0D01*
G01*
X199567Y286221D02*
X220433D01*
X212500Y363779D02*
X220433D01*
X199567D02*
X207500D01*
X220433Y286221D02*
Y363779D01*
X199567Y286221D02*
Y363779D01*
X350000Y395079D02*
Y404921D01*
X327520Y385000D02*
X330669D01*
X329095Y383425D02*
Y386575D01*
X220000Y395079D02*
Y404921D01*
X185000Y395079D02*
Y404921D01*
D23*
X277500Y405000D02*
G03*
X282500Y405000I2500J0D01*
G01*
X350000Y395079D02*
X350079Y395000D01*
X370000D01*
X369921Y395079D02*
X370000Y395000D01*
Y404843D01*
X369921Y404921D02*
X370000Y404843D01*
X350000Y404921D02*
X369921D01*
X220000Y395079D02*
X220079Y395000D01*
X240000D01*
X239921Y395079D02*
X240000Y395000D01*
Y404843D01*
X239921Y404921D02*
X240000Y404843D01*
X220000Y404921D02*
X239921D01*
X185000Y395079D02*
X185079Y395000D01*
X205000D01*
X204921Y395079D02*
X205000Y395000D01*
Y404843D01*
X204921Y404921D02*
X205000Y404843D01*
X185000Y404921D02*
X204921D01*
X258500Y405000D02*
X277500D01*
X282500D02*
X301500D01*
Y255000D02*
Y405000D01*
X258500Y255000D02*
X301500D01*
X258500D02*
Y405000D01*
X330000Y265000D02*
X370000D01*
X330000D02*
Y285000D01*
X370000D01*
Y265000D02*
Y285000D01*
X205000Y279998D02*
X208999Y276000D01*
X205000D02*
X208999Y279998D01*
X205000Y277999D02*
X208999D01*
X206999Y276000D02*
Y279998D01*
X213997Y275000D02*
Y280998D01*
X210998Y277999D01*
X214997D01*
X358999Y415998D02*
X356999D01*
X357999D01*
Y411000D01*
X356999Y410000D01*
X356000D01*
X355000Y411000D01*
X360998Y410000D02*
X362997D01*
X361998D01*
Y415998D01*
X360998Y414998D01*
X333999Y409998D02*
X332999Y410998D01*
X331000D01*
X330000Y409998D01*
Y406000D01*
X331000Y405000D01*
X332999D01*
X333999Y406000D01*
X335998Y409998D02*
X336998Y410998D01*
X338997D01*
X339997Y409998D01*
Y408999D01*
X338997Y407999D01*
X337997D01*
X338997D01*
X339997Y406999D01*
Y406000D01*
X338997Y405000D01*
X336998D01*
X335998Y406000D01*
X224499Y414398D02*
X222499D01*
X223499D01*
Y409400D01*
X222499Y408400D01*
X221500D01*
X220500Y409400D01*
X226498Y413398D02*
X227498Y414398D01*
X229497D01*
X230497Y413398D01*
Y412399D01*
X229497Y411399D01*
X228497D01*
X229497D01*
X230497Y410399D01*
Y409400D01*
X229497Y408400D01*
X227498D01*
X226498Y409400D01*
X189499Y414398D02*
X187499D01*
X188499D01*
Y409400D01*
X187499Y408400D01*
X186500D01*
X185500Y409400D01*
X195497Y408400D02*
X191498D01*
X195497Y412399D01*
Y413398D01*
X194497Y414398D01*
X192498D01*
X191498Y413398D01*
X245650Y413448D02*
X249649Y409450D01*
X245650D02*
X249649Y413448D01*
X245650Y411449D02*
X249649D01*
X247649Y409450D02*
Y413448D01*
X255647Y414448D02*
X251648D01*
Y411449D01*
X253647Y412449D01*
X254647D01*
X255647Y411449D01*
Y409450D01*
X254647Y408450D01*
X252648D01*
X251648Y409450D01*
X320450Y373448D02*
X324449Y369450D01*
X320450D02*
X324449Y373448D01*
X320450Y371449D02*
X324449D01*
X322449Y369450D02*
Y373448D01*
X330447Y374448D02*
X328447Y373448D01*
X326448Y371449D01*
Y369450D01*
X327448Y368450D01*
X329447D01*
X330447Y369450D01*
Y370449D01*
X329447Y371449D01*
X326448D01*
M02*
