G04 Layer_Color=20142*
%FSLAX25Y25*%
%MOIN*%
G70*
G01*
G75*
%ADD24C,0.06706*%
%ADD25R,0.06706X0.06706*%
%ADD26R,0.07887X0.07887*%
%ADD27C,0.07887*%
G04:AMPARAMS|DCode=28|XSize=63.12mil|YSize=63.12mil|CornerRadius=20.54mil|HoleSize=0mil|Usage=FLASHONLY|Rotation=90.000|XOffset=0mil|YOffset=0mil|HoleType=Round|Shape=RoundedRectangle|*
%AMROUNDEDRECTD28*
21,1,0.06312,0.02205,0,0,90.0*
21,1,0.02205,0.06312,0,0,90.0*
1,1,0.04107,0.01102,0.01102*
1,1,0.04107,0.01102,-0.01102*
1,1,0.04107,-0.01102,-0.01102*
1,1,0.04107,-0.01102,0.01102*
%
%ADD28ROUNDEDRECTD28*%
%ADD29C,0.06312*%
%ADD30R,0.10800X0.05800*%
%ADD31O,0.10800X0.05800*%
%ADD32C,0.06800*%
D24*
X225000Y290000D02*
D03*
Y300000D02*
D03*
Y310000D02*
D03*
Y320000D02*
D03*
Y330000D02*
D03*
Y340000D02*
D03*
Y350000D02*
D03*
Y360000D02*
D03*
X195000Y290000D02*
D03*
Y300000D02*
D03*
Y310000D02*
D03*
Y320000D02*
D03*
Y330000D02*
D03*
Y340000D02*
D03*
Y350000D02*
D03*
D25*
Y360000D02*
D03*
D26*
X355000Y400000D02*
D03*
X225000D02*
D03*
X190000D02*
D03*
D27*
X365000D02*
D03*
X235000D02*
D03*
X200000D02*
D03*
D28*
X335000Y392874D02*
D03*
D29*
Y385000D02*
D03*
D30*
X250000Y400000D02*
D03*
D31*
Y390000D02*
D03*
Y380000D02*
D03*
Y370000D02*
D03*
Y360000D02*
D03*
Y350000D02*
D03*
Y340000D02*
D03*
Y330000D02*
D03*
Y320000D02*
D03*
Y310000D02*
D03*
Y300000D02*
D03*
Y290000D02*
D03*
Y280000D02*
D03*
Y270000D02*
D03*
Y260000D02*
D03*
X310000Y400000D02*
D03*
Y390000D02*
D03*
Y380000D02*
D03*
Y370000D02*
D03*
Y360000D02*
D03*
Y350000D02*
D03*
Y340000D02*
D03*
Y330000D02*
D03*
Y320000D02*
D03*
Y310000D02*
D03*
Y300000D02*
D03*
Y290000D02*
D03*
Y280000D02*
D03*
Y270000D02*
D03*
Y260000D02*
D03*
D32*
X365000Y270000D02*
D03*
Y280000D02*
D03*
X355000Y270000D02*
D03*
Y280000D02*
D03*
X345000Y270000D02*
D03*
Y280000D02*
D03*
X335000Y270000D02*
D03*
Y280000D02*
D03*
M02*
