M48
;Layer_Color=6321
;FILE_FORMAT=2:5
INCH,LZ
;TYPE=PLATED
T1F00S00C0.02500
T2F00S00C0.03000
T3F00S00C0.03150
T4F00S00C0.03543
T5F00S00C0.04134
%
T01
X025Y026
Y027
Y028
Y029
Y03
Y031
X031
Y03
Y029
Y028
Y027
Y026
Y032
Y033
Y034
Y035
Y036
Y037
Y038
Y039
Y04
X025
Y039
Y038
Y037
Y036
Y035
Y034
Y033
Y032
T02
X0335Y027
X0345
X0355
X0365
Y028
X0355
X0345
X0335
T03
X0335Y0385
Y0392874
T04
X0195Y029
Y03
Y031
X0225
Y03
Y029
Y032
Y033
Y034
Y035
Y036
X0195
Y035
Y034
Y033
Y032
T05
X019Y04
X02
X0225
X0235
X0355
X0365
M30
