G04 Layer_Physical_Order=1*
G04 Layer_Color=25308*
%FSLAX25Y25*%
%MOIN*%
G70*
G01*
G75*
%ADD10C,0.01772*%
%ADD11C,0.05906*%
%ADD12R,0.05906X0.05906*%
%ADD13R,0.07087X0.07087*%
%ADD14C,0.07087*%
G04:AMPARAMS|DCode=15|XSize=55.12mil|YSize=55.12mil|CornerRadius=16.54mil|HoleSize=0mil|Usage=FLASHONLY|Rotation=90.000|XOffset=0mil|YOffset=0mil|HoleType=Round|Shape=RoundedRectangle|*
%AMROUNDEDRECTD15*
21,1,0.05512,0.02205,0,0,90.0*
21,1,0.02205,0.05512,0,0,90.0*
1,1,0.03307,0.01102,0.01102*
1,1,0.03307,0.01102,-0.01102*
1,1,0.03307,-0.01102,-0.01102*
1,1,0.03307,-0.01102,0.01102*
%
%ADD15ROUNDEDRECTD15*%
%ADD16C,0.05512*%
%ADD17R,0.10000X0.05000*%
%ADD18O,0.10000X0.05000*%
%ADD19C,0.06000*%
D10*
X310000Y400000D02*
X355000D01*
X337126Y392874D02*
X362874D01*
X335000D02*
X337126D01*
X365000Y395000D02*
Y400000D01*
X362874Y392874D02*
X365000Y395000D01*
X335000Y280000D02*
Y385000D01*
X332874Y395000D02*
X335000Y392874D01*
X320000Y395000D02*
X332874D01*
X315000Y390000D02*
X320000Y395000D01*
X310000Y390000D02*
X315000D01*
X337126Y392874D02*
X340000Y390000D01*
Y275000D02*
Y390000D01*
X335000Y270000D02*
X340000Y275000D01*
X310000Y270000D02*
X315000D01*
X325000Y280000D01*
X335000D01*
X310000Y260000D02*
X350000D01*
X355000Y265000D01*
Y270000D01*
X240000Y290000D02*
X250000D01*
X230000Y300000D02*
X240000Y290000D01*
X225000Y300000D02*
X230000D01*
X245000Y320000D02*
X250000D01*
X230000Y305000D02*
X245000Y320000D01*
X220000Y305000D02*
X230000D01*
X215000Y300000D02*
X220000Y305000D01*
X215000Y295000D02*
Y300000D01*
Y295000D02*
X220000Y290000D01*
X225000D01*
X245000Y360000D02*
X250000D01*
X230000Y375000D02*
X245000Y360000D01*
X185000Y375000D02*
X230000D01*
X180000Y370000D02*
X185000Y375000D01*
X180000Y350000D02*
Y370000D01*
Y350000D02*
X185000Y345000D01*
Y340000D02*
Y345000D01*
Y340000D02*
X190000Y335000D01*
Y305000D02*
Y335000D01*
Y305000D02*
X195000Y300000D01*
X225000Y320000D02*
Y330000D01*
X195000Y320000D02*
Y330000D01*
X245000Y340000D02*
X250000D01*
X235000Y350000D02*
X245000Y340000D01*
X225000Y350000D02*
X235000D01*
X245000D02*
X250000D01*
X225000Y370000D02*
X245000Y350000D01*
X190000Y370000D02*
X225000D01*
X185000Y365000D02*
X190000Y370000D01*
X185000Y355000D02*
Y365000D01*
Y355000D02*
X190000Y350000D01*
X195000D01*
X245000Y335000D02*
X250000Y330000D01*
X220000Y335000D02*
X245000D01*
X195000Y360000D02*
X220000Y335000D01*
X250000Y370000D02*
X255000D01*
X260000Y365000D01*
Y330000D02*
Y365000D01*
X255000Y325000D02*
X260000Y330000D01*
X245000Y325000D02*
X255000D01*
X240000Y330000D02*
X245000Y325000D01*
X225000Y330000D02*
X240000D01*
D11*
X225000Y290000D02*
D03*
Y300000D02*
D03*
Y310000D02*
D03*
Y320000D02*
D03*
Y330000D02*
D03*
Y340000D02*
D03*
Y350000D02*
D03*
Y360000D02*
D03*
X195000Y290000D02*
D03*
Y300000D02*
D03*
Y310000D02*
D03*
Y320000D02*
D03*
Y330000D02*
D03*
Y340000D02*
D03*
Y350000D02*
D03*
D12*
Y360000D02*
D03*
D13*
X355000Y400000D02*
D03*
X225000D02*
D03*
X190000D02*
D03*
D14*
X365000D02*
D03*
X235000D02*
D03*
X200000D02*
D03*
D15*
X335000Y392874D02*
D03*
D16*
Y385000D02*
D03*
D17*
X250000Y400000D02*
D03*
D18*
Y390000D02*
D03*
Y380000D02*
D03*
Y370000D02*
D03*
Y360000D02*
D03*
Y350000D02*
D03*
Y340000D02*
D03*
Y330000D02*
D03*
Y320000D02*
D03*
Y310000D02*
D03*
Y300000D02*
D03*
Y290000D02*
D03*
Y280000D02*
D03*
Y270000D02*
D03*
Y260000D02*
D03*
X310000Y400000D02*
D03*
Y390000D02*
D03*
Y380000D02*
D03*
Y370000D02*
D03*
Y360000D02*
D03*
Y350000D02*
D03*
Y340000D02*
D03*
Y330000D02*
D03*
Y320000D02*
D03*
Y310000D02*
D03*
Y300000D02*
D03*
Y290000D02*
D03*
Y280000D02*
D03*
Y270000D02*
D03*
Y260000D02*
D03*
D19*
X365000Y270000D02*
D03*
Y280000D02*
D03*
X355000Y270000D02*
D03*
Y280000D02*
D03*
X345000Y270000D02*
D03*
Y280000D02*
D03*
X335000Y270000D02*
D03*
Y280000D02*
D03*
M02*
