G04 Layer_Physical_Order=2*
G04 Layer_Color=11436288*
%FSLAX25Y25*%
%MOIN*%
G70*
G01*
G75*
%ADD10C,0.01772*%
%ADD11C,0.05906*%
%ADD12R,0.05906X0.05906*%
%ADD13R,0.07087X0.07087*%
%ADD14C,0.07087*%
G04:AMPARAMS|DCode=15|XSize=55.12mil|YSize=55.12mil|CornerRadius=16.54mil|HoleSize=0mil|Usage=FLASHONLY|Rotation=90.000|XOffset=0mil|YOffset=0mil|HoleType=Round|Shape=RoundedRectangle|*
%AMROUNDEDRECTD15*
21,1,0.05512,0.02205,0,0,90.0*
21,1,0.02205,0.05512,0,0,90.0*
1,1,0.03307,0.01102,0.01102*
1,1,0.03307,0.01102,-0.01102*
1,1,0.03307,-0.01102,-0.01102*
1,1,0.03307,-0.01102,0.01102*
%
%ADD15ROUNDEDRECTD15*%
%ADD16C,0.05512*%
%ADD17R,0.10000X0.05000*%
%ADD18O,0.10000X0.05000*%
%ADD19C,0.06000*%
D10*
X345000Y280000D02*
Y285000D01*
X340000Y290000D02*
X345000Y285000D01*
X323772Y290000D02*
X340000D01*
X319386Y285614D02*
X323772Y290000D01*
X269386Y285614D02*
X319386D01*
X265000Y290000D02*
X269386Y285614D01*
X265000Y290000D02*
Y310000D01*
X260000Y315000D02*
X265000Y310000D01*
X245000Y315000D02*
X260000D01*
X240000Y310000D02*
X245000Y315000D01*
X240000Y305000D02*
Y310000D01*
Y305000D02*
X245000Y300000D01*
X250000D01*
X340000Y275000D02*
X345000Y270000D01*
X305000Y275000D02*
X340000D01*
X295000Y265000D02*
X305000Y275000D01*
X270000Y265000D02*
X295000D01*
X260000Y275000D02*
X270000Y265000D01*
X260000Y275000D02*
Y305000D01*
X255000Y310000D02*
X260000Y305000D01*
X250000Y310000D02*
X255000D01*
X355000Y280000D02*
X360000Y275000D01*
Y265000D02*
Y275000D01*
X355000Y260000D02*
X360000Y265000D01*
X320000Y260000D02*
X355000D01*
X315000Y265000D02*
X320000Y260000D01*
X305000Y265000D02*
X315000D01*
X300000Y260000D02*
X305000Y265000D01*
X265000Y260000D02*
X300000D01*
X255000Y270000D02*
X265000Y260000D01*
X250000Y270000D02*
X255000D01*
X365000Y260000D02*
Y270000D01*
X360000Y255000D02*
X365000Y260000D01*
X260000Y255000D02*
X360000D01*
X255000Y260000D02*
X260000Y255000D01*
X250000Y260000D02*
X255000D01*
X310000Y400000D02*
Y405000D01*
X305000Y410000D02*
X310000Y405000D01*
X215000Y410000D02*
X305000D01*
X210000Y405000D02*
X215000Y410000D01*
X210000Y395000D02*
Y405000D01*
X205000Y390000D02*
X210000Y395000D01*
X205000Y300000D02*
Y390000D01*
X195000Y290000D02*
X205000Y300000D01*
X225000Y310000D02*
X230000Y315000D01*
Y390000D01*
X235000Y395000D01*
Y400000D01*
X220000Y345000D02*
X225000Y340000D01*
X220000Y345000D02*
Y390000D01*
X225000Y395000D01*
Y400000D01*
X195000Y310000D02*
X200000Y315000D01*
Y400000D01*
X190000Y345000D02*
X195000Y340000D01*
X190000Y345000D02*
Y400000D01*
D11*
X225000Y290000D02*
D03*
Y300000D02*
D03*
Y310000D02*
D03*
Y320000D02*
D03*
Y330000D02*
D03*
Y340000D02*
D03*
Y350000D02*
D03*
Y360000D02*
D03*
X195000Y290000D02*
D03*
Y300000D02*
D03*
Y310000D02*
D03*
Y320000D02*
D03*
Y330000D02*
D03*
Y340000D02*
D03*
Y350000D02*
D03*
D12*
Y360000D02*
D03*
D13*
X355000Y400000D02*
D03*
X225000D02*
D03*
X190000D02*
D03*
D14*
X365000D02*
D03*
X235000D02*
D03*
X200000D02*
D03*
D15*
X335000Y392874D02*
D03*
D16*
Y385000D02*
D03*
D17*
X250000Y400000D02*
D03*
D18*
Y390000D02*
D03*
Y380000D02*
D03*
Y370000D02*
D03*
Y360000D02*
D03*
Y350000D02*
D03*
Y340000D02*
D03*
Y330000D02*
D03*
Y320000D02*
D03*
Y310000D02*
D03*
Y300000D02*
D03*
Y290000D02*
D03*
Y280000D02*
D03*
Y270000D02*
D03*
Y260000D02*
D03*
X310000Y400000D02*
D03*
Y390000D02*
D03*
Y380000D02*
D03*
Y370000D02*
D03*
Y360000D02*
D03*
Y350000D02*
D03*
Y340000D02*
D03*
Y330000D02*
D03*
Y320000D02*
D03*
Y310000D02*
D03*
Y300000D02*
D03*
Y290000D02*
D03*
Y280000D02*
D03*
Y270000D02*
D03*
Y260000D02*
D03*
D19*
X365000Y270000D02*
D03*
Y280000D02*
D03*
X355000Y270000D02*
D03*
Y280000D02*
D03*
X345000Y270000D02*
D03*
Y280000D02*
D03*
X335000Y270000D02*
D03*
Y280000D02*
D03*
M02*
