G04 Layer_Color=15132400*
%FSLAX25Y25*%
%MOIN*%
G70*
G01*
G75*
%ADD21C,0.00787*%
%ADD22C,0.01000*%
%ADD23C,0.00700*%
D21*
X331279Y372500D02*
G03*
X331279Y372500I-9843J0D01*
G01*
X178779Y395000D02*
G03*
X178779Y395000I-9843J0D01*
G01*
X317500Y376831D02*
Y379980D01*
X315925Y378405D02*
X319075D01*
X165000Y399331D02*
Y402480D01*
X163425Y400906D02*
X166575D01*
D22*
X227500Y415000D02*
G03*
X232500Y415000I2500J0D01*
G01*
X275000Y382500D02*
X295000D01*
Y377500D02*
Y382500D01*
Y362500D02*
Y377500D01*
X275000Y362500D02*
X295000D01*
X275000D02*
Y382500D01*
X170000Y275000D02*
Y295000D01*
X130000D02*
X170000D01*
X130000Y275000D02*
Y295000D01*
Y275000D02*
X170000D01*
X208500Y265000D02*
Y415000D01*
Y265000D02*
X251500D01*
Y415000D01*
X232500D02*
X251500D01*
X208500D02*
X227500D01*
X303999Y369998D02*
X302999Y370998D01*
X301000D01*
X300000Y369998D01*
Y366000D01*
X301000Y365000D01*
X302999D01*
X303999Y366000D01*
X305998Y365000D02*
X307997D01*
X306998D01*
Y370998D01*
X305998Y369998D01*
X300000Y382498D02*
X303999Y378500D01*
X300000D02*
X303999Y382498D01*
X300000Y380499D02*
X303999D01*
X301999Y378500D02*
Y382498D01*
X305998Y377500D02*
X307997D01*
X306998D01*
Y383498D01*
X305998Y382498D01*
X186499Y399998D02*
X185499Y400998D01*
X183500D01*
X182500Y399998D01*
Y396000D01*
X183500Y395000D01*
X185499D01*
X186499Y396000D01*
X192497Y395000D02*
X188498D01*
X192497Y398999D01*
Y399998D01*
X191497Y400998D01*
X189498D01*
X188498Y399998D01*
X225000Y404998D02*
X228999Y401000D01*
X225000D02*
X228999Y404998D01*
X225000Y402999D02*
X228999D01*
X226999Y401000D02*
Y404998D01*
X234997Y400000D02*
X230998D01*
X234997Y403999D01*
Y404998D01*
X233997Y405998D01*
X231998D01*
X230998Y404998D01*
X145000Y382498D02*
X148999Y378500D01*
X145000D02*
X148999Y382498D01*
X145000Y380499D02*
X148999D01*
X146999Y378500D02*
Y382498D01*
X150998D02*
X151998Y383498D01*
X153997D01*
X154997Y382498D01*
Y381499D01*
X153997Y380499D01*
X152997D01*
X153997D01*
X154997Y379499D01*
Y378500D01*
X153997Y377500D01*
X151998D01*
X150998Y378500D01*
X325000Y357500D02*
Y363498D01*
X326999Y361499D01*
X328999Y363498D01*
Y357500D01*
X330998D02*
X332997D01*
X331998D01*
Y363498D01*
X330998Y362498D01*
X332498Y408501D02*
X333498Y409501D01*
Y411500D01*
X332498Y412500D01*
X331499D01*
X330499Y411500D01*
Y409501D01*
X329499Y408501D01*
X328500D01*
X327500Y409501D01*
Y411500D01*
X328500Y412500D01*
X333498Y406502D02*
X327500D01*
X329499Y404503D01*
X327500Y402503D01*
X333498D01*
X327500Y400504D02*
Y398504D01*
Y399504D01*
X333498D01*
X332498Y400504D01*
D23*
X275847Y416161D02*
X319153D01*
Y398839D02*
Y416161D01*
X275847Y398839D02*
X319153D01*
X275847D02*
Y416161D01*
M02*
