M48
;Layer_Color=6321
;FILE_FORMAT=2:5
INCH,LZ
;TYPE=PLATED
T1F00S00C0.03100
T2F00S00C0.03150
T3F00S00C0.03937
T4F00S00C0.04400
T5F00S00C0.05900
%
T01
X028965Y04075
X029755
X030545
T02
X0165Y0395
X0172874
X03175Y03725
X0325374
T03
X02775Y02775
Y02875
Y02975
Y03075
Y03175
Y03275
Y03375
Y03475
X028Y03725
X029
T04
X0165Y028
Y029
X02
Y028
Y027
Y03
Y031
X026
Y03
Y029
Y028
Y027
X0155Y028
X0145
X0135
Y029
X0145
X0155
X02Y032
Y033
Y034
Y035
Y036
Y037
Y038
Y039
Y04
Y041
X026
Y04
Y039
Y038
Y037
Y036
Y035
Y034
Y033
Y032
T05
X028135Y04075
X031365
M30
