G04 Layer_Physical_Order=1*
G04 Layer_Color=25308*
%FSLAX25Y25*%
%MOIN*%
G70*
G01*
G75*
%ADD10C,0.01969*%
G04:AMPARAMS|DCode=11|XSize=55.12mil|YSize=55.12mil|CornerRadius=16.54mil|HoleSize=0mil|Usage=FLASHONLY|Rotation=0.000|XOffset=0mil|YOffset=0mil|HoleType=Round|Shape=RoundedRectangle|*
%AMROUNDEDRECTD11*
21,1,0.05512,0.02205,0,0,0.0*
21,1,0.02205,0.05512,0,0,0.0*
1,1,0.03307,0.01102,-0.01102*
1,1,0.03307,-0.01102,-0.01102*
1,1,0.03307,-0.01102,0.01102*
1,1,0.03307,0.01102,0.01102*
%
%ADD11ROUNDEDRECTD11*%
%ADD12C,0.05512*%
%ADD13C,0.07000*%
%ADD14R,0.07000X0.07000*%
%ADD15C,0.06000*%
%ADD16O,0.10000X0.05000*%
%ADD17R,0.10000X0.05000*%
%ADD18R,0.07874X0.07874*%
%ADD19C,0.07874*%
%ADD20C,0.07087*%
D10*
X270000Y332500D02*
Y345000D01*
X265000Y350000D02*
X270000Y345000D01*
X260000Y350000D02*
X265000D01*
X275000Y327500D02*
X277500D01*
X270000Y332500D02*
X275000Y327500D01*
X277500Y337500D02*
X285000D01*
X290000Y342500D01*
Y372500D01*
Y385000D01*
X285000Y390000D02*
X290000Y385000D01*
X272500Y390000D02*
X285000D01*
X262500Y400000D02*
X272500Y390000D01*
X260000Y400000D02*
X262500D01*
X290000Y407850D02*
Y415000D01*
X285000Y420000D02*
X290000Y415000D01*
X265000Y420000D02*
X285000D01*
X260000Y415000D02*
X265000Y420000D01*
X260000Y410000D02*
Y415000D01*
X147500Y395000D02*
X165000D01*
X135000Y382500D02*
X147500Y395000D01*
X135000Y290000D02*
Y382500D01*
X155000Y280000D02*
X165000Y270000D01*
X180000D01*
X190000Y260000D01*
X250000D01*
X260000Y270000D01*
X165000Y280000D02*
X180000D01*
X190000Y270000D01*
X200000D01*
X145000Y290000D02*
Y305000D01*
X150000Y310000D01*
X200000D01*
X155000Y290000D02*
Y295000D01*
X160000Y300000D01*
X170000D01*
X190000Y280000D01*
X200000D01*
X130000Y285000D02*
Y385000D01*
Y285000D02*
X135000Y280000D01*
X130000Y385000D02*
X150000Y405000D01*
X170000D02*
X172874Y402126D01*
X150000Y405000D02*
X170000D01*
X172874Y387126D02*
X180000Y380000D01*
X200000D01*
X172874Y387126D02*
Y395000D01*
Y402126D01*
D11*
X325374Y372500D02*
D03*
X172874Y395000D02*
D03*
D12*
X317500Y372500D02*
D03*
X165000Y395000D02*
D03*
D13*
X290000Y372500D02*
D03*
D14*
X280000D02*
D03*
D15*
X135000Y290000D02*
D03*
Y280000D02*
D03*
X145000Y290000D02*
D03*
Y280000D02*
D03*
X155000Y290000D02*
D03*
Y280000D02*
D03*
X165000Y290000D02*
D03*
Y280000D02*
D03*
X305450Y407500D02*
D03*
X297550D02*
D03*
X289650D02*
D03*
D16*
X260000Y270000D02*
D03*
Y280000D02*
D03*
Y290000D02*
D03*
Y300000D02*
D03*
Y310000D02*
D03*
Y320000D02*
D03*
Y330000D02*
D03*
Y340000D02*
D03*
Y350000D02*
D03*
Y360000D02*
D03*
Y370000D02*
D03*
Y380000D02*
D03*
Y390000D02*
D03*
Y400000D02*
D03*
Y410000D02*
D03*
X200000Y270000D02*
D03*
Y280000D02*
D03*
Y290000D02*
D03*
Y300000D02*
D03*
Y310000D02*
D03*
Y320000D02*
D03*
Y330000D02*
D03*
Y340000D02*
D03*
Y350000D02*
D03*
Y360000D02*
D03*
Y370000D02*
D03*
Y380000D02*
D03*
Y390000D02*
D03*
Y400000D02*
D03*
D17*
Y410000D02*
D03*
D18*
X277500Y347500D02*
D03*
D19*
Y337500D02*
D03*
Y327500D02*
D03*
Y317500D02*
D03*
Y307500D02*
D03*
Y297500D02*
D03*
Y287500D02*
D03*
Y277500D02*
D03*
D20*
X313650Y407500D02*
D03*
X281350D02*
D03*
M02*
